<svg width="289" height="164" viewBox="0 0 289 164" fill="none" xmlns="http://www.w3.org/2000/svg">
<path d="M129 42L142 31H162L135.5 53C129 59 118.5 56.5 115 53L84.5 27C54.5 2.19998 35 21 31.5 39L14.5 131C12 153.5 36.5 151 48.5 143L203.5 12C237.9 -11.6 264.5 8 270.5 29L287 116.5C296.5 168 256.5 170 238 156L167.5 97C164.7 94.6 161.667 96 160.5 97L149 106.5H129L151.5 86.5C161.5 78.5 172.667 83.6667 176 86.5L243 143.5C263.5 158.5 277.5 140.5 275.5 128L260 40C258 30.4 252.333 23.3333 250 22C235.2 7.6 217.333 18 210 24L60.5 148.5C14 183 -5 147.5 2 122L14.5 53C15.5 47.5 19.3333 31.5 21.5 25C22.8333 21 28.1294 12.4491 33 8.5C51.5 -6.50002 78.5 4 86 11L123 42C125.4 44 128 42.8333 129 42Z" fill="url(#paint0_linear_1_2)"/>
<circle cx="208" cy="71" r="9" fill="url(#paint1_linear_1_2)"/>
<circle cx="244" cy="71" r="9" fill="url(#paint2_linear_1_2)"/>
<circle cx="226" cy="90" r="9" fill="url(#paint3_linear_1_2)"/>
<circle cx="226" cy="53" r="9" fill="url(#paint4_linear_1_2)"/>
<rect x="55" y="44" width="18" height="18" rx="3" fill="url(#paint5_linear_1_2)"/>
<rect x="55" y="80" width="18" height="18" rx="3" fill="url(#paint6_linear_1_2)"/>
<rect x="37" y="62" width="18" height="18" rx="3" fill="url(#paint7_linear_1_2)"/>
<rect x="73" y="62" width="18" height="18" rx="3" fill="url(#paint8_linear_1_2)"/>
<defs>
<linearGradient id="paint0_linear_1_2" x1="15" y1="66.5" x2="275.5" y2="71" gradientUnits="userSpaceOnUse">
<stop stop-color="#FD0707"/>
<stop offset="1" stop-color="#074CFD"/>
</linearGradient>
<linearGradient id="paint1_linear_1_2" x1="222.667" y1="69.6909" x2="197.167" y2="69.1817" gradientUnits="userSpaceOnUse">
<stop stop-color="#0D4AF7"/>
<stop offset="1" stop-color="#792C8B"/>
</linearGradient>
<linearGradient id="paint2_linear_1_2" x1="258.667" y1="69.6909" x2="233.167" y2="69.1817" gradientUnits="userSpaceOnUse">
<stop stop-color="#0D4AF7"/>
<stop offset="1" stop-color="#792C8B"/>
</linearGradient>
<linearGradient id="paint3_linear_1_2" x1="240.667" y1="88.6909" x2="215.167" y2="88.1817" gradientUnits="userSpaceOnUse">
<stop stop-color="#0D4AF7"/>
<stop offset="1" stop-color="#792C8B"/>
</linearGradient>
<linearGradient id="paint4_linear_1_2" x1="240.667" y1="51.6909" x2="215.167" y2="51.1817" gradientUnits="userSpaceOnUse">
<stop stop-color="#0D4AF7"/>
<stop offset="1" stop-color="#792C8B"/>
</linearGradient>
<linearGradient id="paint5_linear_1_2" x1="47.3333" y1="56.1667" x2="75.1667" y2="55.6667" gradientUnits="userSpaceOnUse">
<stop stop-color="#F7080D"/>
<stop offset="1" stop-color="#942470"/>
</linearGradient>
<linearGradient id="paint6_linear_1_2" x1="47.3333" y1="92.1667" x2="75.1667" y2="91.6667" gradientUnits="userSpaceOnUse">
<stop stop-color="#F7080D"/>
<stop offset="1" stop-color="#942470"/>
</linearGradient>
<linearGradient id="paint7_linear_1_2" x1="29.3333" y1="74.1667" x2="57.1667" y2="73.6667" gradientUnits="userSpaceOnUse">
<stop stop-color="#F7080D"/>
<stop offset="1" stop-color="#942470"/>
</linearGradient>
<linearGradient id="paint8_linear_1_2" x1="65.3333" y1="74.1667" x2="93.1667" y2="73.6667" gradientUnits="userSpaceOnUse">
<stop stop-color="#F7080D"/>
<stop offset="1" stop-color="#942470"/>
</linearGradient>
</defs>
</svg>
